<?xml version="1.0" encoding="UTF-8"?>
<!DOCTYPE svg PUBLIC "-//W3C//DTD SVG 1.1//EN" "http://www.w3.org/Graphics/SVG/1.1/DTD/svg11.dtd">
<!-- Creator: CorelDRAW X7 -->
<svg xmlns="http://www.w3.org/2000/svg" xml:space="preserve" width="22.6496mm" height="22.6504mm" version="1.1" shape-rendering="geometricPrecision" text-rendering="geometricPrecision" image-rendering="optimizeQuality" fill-rule="evenodd" clip-rule="evenodd"
viewBox="0 0 2267 2267"
 xmlns:xlink="http://www.w3.org/1999/xlink">
 <g id="Слой_x0020_1">
  <metadata id="CorelCorpID_0Corel-Layer"/>
  <path fill="none" stroke="#FCE58F" stroke-width="65.0451" d="M297 1297l-137 -2c-119,-38 -154,-115 -108,-230"/>
  <line fill="none" stroke="#FCE58F" stroke-width="65.0451" x1="44" y1="1082" x2="1045" y2= "63" />
  <path fill="none" stroke="#FCE58F" stroke-width="65.0451" d="M1045 63c27,-22 57,-32 88,-30"/>
  <path fill="none" stroke="#FCE58F" stroke-width="65.0451" d="M275 1297c0,0 84,1 107,-2 32,-5 81,-40 81,-79 0,-19 -6,-16 -19,-34 -16,-22 -23,-48 1,-67 40,-31 107,-2 153,-25 15,-8 34,-15 41,-43 8,-34 -25,-103 -6,-125 21,-25 192,51 192,-98 0,-30 -16,-32 -33,-55 -21,-27 -7,-65 16,-86 50,-46 127,28 163,-94 11,-40 18,-88 58,-104 14,-6 88,-10 104,-9 0,0 -1,1 0,0"/>
  <path fill="none" stroke="#FCE58F" stroke-width="65.0451" d="M1968 1296l137 -2c118,-38 154,-115 107,-230"/>
  <line fill="none" stroke="#FCE58F" stroke-width="65.0451" x1="2212" y1="1064" x2="1221" y2= "63" />
  <path fill="none" stroke="#FCE58F" stroke-width="65.0451" d="M1221 63c-28,-22 -57,-32 -88,-30"/>
  <path fill="none" stroke="#FCE58F" stroke-width="65.0451" d="M1995 1297c1,0 -89,0 -111,-4 -33,-4 -82,-40 -82,-78 1,-19 6,-16 19,-34 16,-22 23,-48 -1,-67 -40,-31 -107,-2 -153,-25 -14,-8 -34,-15 -41,-43 -8,-34 25,-103 6,-125 -21,-25 -192,51 -192,-97 0,-31 16,-33 34,-55 20,-28 7,-66 -16,-87 -50,-45 -127,29 -163,-94 -12,-39 -18,-87 -58,-104 -14,-6 -88,-9 -104,-8 0,0 1,0 0,0"/>
  <line fill="none" stroke="#FCE58F" stroke-width="65.0451" x1="297" y1="1297" x2="526" y2= "1983" />
  <path fill="none" stroke="#FCE58F" stroke-width="65.0451" d="M526 1983c-72,87 -31,226 99,250l508 1"/>
  <path fill="none" stroke="#FCE58F" stroke-width="65.0451" d="M1970 1297l137 -2c118,-38 154,-115 108,-230"/>
  <line fill="none" stroke="#FCE58F" stroke-width="65.0451" x1="1970" y1="1297" x2="1741" y2= "1983" />
  <path fill="none" stroke="#FCE58F" stroke-width="65.0451" d="M1741 1983c72,87 30,226 -99,250l-509 1"/>
  <line fill="none" stroke="#FCE58F" stroke-width="65.0451" x1="526" y1="1983" x2="1741" y2= "1983" />
  <line fill="none" stroke="#FCE58F" stroke-width="65.0451" x1="1007" y1="1983" x2="1007" y2= "1667" />
  <path fill="none" stroke="#FCE58F" stroke-width="65.0451" d="M1007 1667c75,-105 176,-116 254,0l0 316"/>
  <rect fill="none" stroke="#FCE58F" stroke-width="65.0451" x="578" y="1569" width="271" height="258" rx="109" ry="98"/>
  <line fill="none" stroke="#FCE58F" stroke-width="65.0451" x1="328" y1="1391" x2="1938" y2= "1392" />
  <rect fill="none" stroke="#FCE58F" stroke-width="65.0451" x="1417" y="1569" width="271" height="258" rx="109" ry="98"/>
  <path fill="none" stroke="#FCE58F" stroke-width="65.0451" d="M792 769c228,228 455,228 682,0"/>
 </g>
</svg>
